<?xml version="1.0" encoding="UTF-8" standalone="no"?>
<svg
   version="1.1"
   width="320"
   height="327.57013"
   viewBox="0 0 320 327.57013"
   id="svg69"
   sodipodi:docname="logo-full.svg"
   inkscape:version="1.2 (dc2aedaf03, 2022-05-15)"
   xmlns:inkscape="http://www.inkscape.org/namespaces/inkscape"
   xmlns:sodipodi="http://sodipodi.sourceforge.net/DTD/sodipodi-0.dtd"
   xmlns="http://www.w3.org/2000/svg"
   xmlns:svg="http://www.w3.org/2000/svg">
  <defs
     id="defs73" />
  <sodipodi:namedview
     id="namedview71"
     pagecolor="#ffffff"
     bordercolor="#000000"
     borderopacity="0.25"
     inkscape:showpageshadow="2"
     inkscape:pageopacity="0.0"
     inkscape:pagecheckerboard="0"
     inkscape:deskcolor="#d1d1d1"
     showgrid="false"
     inkscape:zoom="2.4849641"
     inkscape:cx="56.540052"
     inkscape:cy="83.904633"
     inkscape:window-width="1920"
     inkscape:window-height="1001"
     inkscape:window-x="-9"
     inkscape:window-y="-9"
     inkscape:window-maximized="1"
     inkscape:current-layer="svg69" />
  <svg
     viewBox="0 0 320 360"
     height="360"
     width="320"
     version="1.1"
     id="svg462"
     style="display:inline"
     transform="translate(0,-16.215)">
    <g
       id="g414">
      <path
         d="m 20.961,227.22 3.726,4.658 -1.863,-6.056 c -0.466,-2.795 -3.726,0.466 -1.863,1.398 m 4.192,-2.795 c 1.397,2.329 2.795,4.658 2.795,6.987 0,3.261 2.795,4.658 5.123,5.589 -3.261,-3.726 -5.124,-13.974 -7.918,-12.576 M 204.017,26.929 c 7.918,0 15.371,-0.932 23.756,0.931 20.495,5.124 37.729,15.371 49.374,29.811 l 32.606,52.169 c 1.397,13.042 4.192,27.482 3.726,43.319 3.261,0 2.795,-4.658 6.521,-5.59 -3.726,9.316 -5.59,20.961 -6.521,34.469 -2.329,-7.453 0,-18.632 0.466,-24.687 -3.261,5.124 -5.124,1.397 -5.124,-0.932 0.466,-3.726 -1.397,-3.261 -2.795,-4.658 -5.124,-4.658 -8.384,-9.782 -12.11,-17.7 2.329,-6.055 2.795,-14.905 -4.658,-19.563 -2.329,-1.397 -5.124,-3.726 -6.521,-7.453 -1.863,-5.124 -5.124,-11.179 -4.193,-19.097 0.466,-2.329 -6.987,5.124 -11.179,1.863 -18.166,-12.576 -36.332,-27.016 -58.224,-39.127 -11.645,0 -20.029,-4.192 -24.221,-9.316 -3.726,-4.658 -0.932,-10.713 4.658,-11.179 3.261,0 6.987,-0.932 9.782,0.932 0.466,-1.863 2.329,-4.192 4.657,-4.192 m -46.113,-10.714 0.932,0.466 c 4.658,0.932 6.987,7.453 12.11,5.124 0,3.261 0.466,6.521 -0.466,8.85 -1.397,3.726 -5.59,3.726 -8.85,3.726 C 130.422,32.518 112.256,45.56 93.159,56.739 88.035,60 82.446,62.329 78.253,66.521 58.224,85.153 36.332,102.387 31.208,136.856 l -4.192,38.195 c -0.466,4.192 -5.124,8.384 -4.192,13.508 l 3.26,22.824 c -3.261,-3.261 -5.124,0.932 -4.192,2.795 0.466,1.397 2.329,6.055 5.124,1.863 3.726,6.987 7.453,20.495 12.576,26.55 15.837,18.632 36.332,35.4 53.101,52.169 4.192,-0.932 7.453,-0.932 8.384,-3.727 1.397,2.795 -1.397,5.59 -3.726,6.056 7.453,4.658 15.837,8.85 27.016,9.781 14.44,0.932 27.948,3.261 40.524,6.522 6.521,-1.863 13.042,-2.795 20.029,-3.261 2.329,0 3.726,-3.726 6.521,-4.658 l 0.466,-4.658 c 2.795,4.192 2.329,-1.397 0.466,-4.192 3.261,2.795 4.192,5.124 5.589,6.987 0,-1.397 3.726,-6.521 3.727,-0.466 l 0.931,-6.055 c 1.397,-0.932 1.863,5.124 3.261,0.931 1.397,-4.192 4.192,-0.932 6.987,-2.329 -0.932,1.863 -0.466,5.59 2.794,3.261 l 3.727,-3.261 c 2.329,5.59 6.055,3.261 7.918,2.329 20.495,-13.042 40.99,-28.413 60.553,-43.784 l -0.466,6.055 2.329,-7.453 c 2.329,2.329 4.192,0.466 5.124,-0.931 2.795,-4.658 6.521,-9.316 12.577,-13.508 -7.453,20.029 -16.303,35.866 -27.482,48.908 l -4.658,5.59 c 0,3.261 -0.932,7.453 -4.658,7.918 -1.863,0.466 -5.59,-0.932 -8.384,1.863 -1.397,1.863 3.261,5.59 -0.466,2.795 -3.261,-2.329 -6.521,0 -10.248,0.932 -2.795,0.932 1.863,3.726 2.795,5.589 0.932,1.863 1.863,3.726 1.398,6.056 l -5.124,-5.59 c -6.055,3.261 -9.782,9.316 -14.906,13.974 -2.329,1.863 -1.397,5.124 -1.397,7.918 -3.261,0 -6.987,-0.932 -8.85,0.932 -1.397,1.863 -0.932,4.658 -0.932,7.453 -4.658,-0.466 -5.124,-7.453 -9.315,-6.056 -4.192,0.932 -8.85,1.397 -12.577,3.727 2.795,5.59 -4.658,2.329 -3.726,3.26 -6.987,-4.192 -13.042,-7.453 -20.495,-4.658 -15.837,-5.124 -35.4,-2.795 -49.84,-0.931 0,-2.329 0.466,-4.658 -0.466,-5.124 -0.932,2.329 -3.726,1.397 -3.26,1.397 -8.85,-6.055 -17.7,-9.782 -27.016,-14.905 -8.384,0.932 -16.303,-3.261 -18.632,-5.59 -6.521,-6.055 -13.974,-2.795 -20.029,-4.192 -13.042,-3.261 -17.7,-16.769 -19.098,-26.084 -0.932,-4.658 -4.658,-6.521 -6.055,-6.056 -6.055,-19.563 -15.371,-37.263 -22.824,-55.429 -1.863,-4.658 -1.397,-9.316 -1.397,-14.44 2.329,0.932 4.658,0.466 4.192,-2.794 C 11.645,189.491 6.056,177.846 0,166.667 3.261,150.83 3.726,132.198 11.179,118.224 17.7,105.648 29.811,99.126 38.195,88.413 c 2.795,-3.726 2.795,-8.85 5.59,-12.11 9.316,-9.316 18.632,-19.098 28.879,-27.482 4.658,-3.726 10.247,0 17.234,-1.397 2.329,-8.384 11.645,-15.837 20.495,-13.508 3.726,0.932 11.179,-8.85 13.508,-9.782 3.726,-1.397 1.863,3.726 1.863,6.987 8.85,-6.987 20.961,-10.713 32.14,-14.906"
         fill="#374151"
         fill-rule="nonzero"
         stroke="none"
         stroke-width="1"
         stroke-linecap="butt"
         stroke-linejoin="miter"
         stroke-miterlimit="10"
         stroke-dasharray="none"
         stroke-dashoffset="0"
         font-family="none"
         font-weight="none"
         font-size="none"
         text-anchor="none"
         style="mix-blend-mode:normal;fill:#524cf0;fill-opacity:1"
         data-fill-palette-color="tertiary"
         id="path412" />
    </g>
    <g
       transform="translate(64,102.80865)"
       id="g460">
      <svg
         viewBox="0 0 192 154.38269"
         height="154.38269"
         width="192"
         version="1.1"
         id="svg458">
        <g
           id="g456">
          <svg
             viewBox="0 0 192 154.38269"
             height="154.38269"
             width="192"
             version="1.1"
             id="svg454">
            <g
               id="g452">
              <svg
                 viewBox="0 0 192 154.38269"
                 height="154.38269"
                 width="192"
                 version="1.1"
                 id="svg450">
                <g
                   transform="translate(0,93.311752)"
                   id="g432"
                   style="display:inline">
                  <svg
                     viewBox="0 0 192 61.070938"
                     height="61.070938"
                     width="192"
                     version="1.1"
                     id="svg430">
                    <g
                       id="g428">
                      <svg
                         viewBox="0 0 192 61.070938"
                         height="61.070938"
                         width="192"
                         id="svg426"
                         version="1.1">
                        <g
                           id="g424">
                          <svg
                             viewBox="0 0 192 61.070938"
                             height="61.070938"
                             width="192"
                             version="1.1"
                             id="svg422">
                            <g
                               id="g420">
                              <svg
                                 width="192"
                                 viewBox="2.1500001 -38.700001 152.94 48.650002"
                                 height="61.070938"
                                 data-palette-color="#374151"
                                 version="1.1"
                                 id="svg418">
                                <path
                                   d="m 9.85,0.4 v 0 Q 7.65,0.4 5.58,-0.38 3.5,-1.15 2.15,-2.7 v 0 L 4.1,-5.4 q 1.3,1.25 2.68,1.87 1.37,0.63 2.72,0.63 v 0 q 1,0 1.85,-0.25 0.85,-0.25 1.38,-0.83 0.52,-0.57 0.52,-1.57 v 0 q 0,-1.1 -0.72,-1.75 Q 11.8,-7.95 10.68,-8.35 9.55,-8.75 8.3,-9.1 v 0 Q 5.75,-9.95 4.4,-11.45 3.05,-12.95 3.05,-15.1 v 0 q 0,-1.65 0.83,-3.08 0.82,-1.42 2.45,-2.32 1.62,-0.9 4.02,-0.9 v 0 q 2.15,0 3.85,0.52 1.7,0.53 3.2,1.73 v 0 l -1.85,2.9 q -0.9,-0.95 -2.15,-1.4 -1.25,-0.45 -2.25,-0.5 v 0 q -0.85,-0.05 -1.62,0.25 -0.78,0.3 -1.28,0.85 -0.5,0.55 -0.5,1.3 v 0 q 0,1.05 0.7,1.7 0.7,0.65 1.83,1.02 1.12,0.38 2.22,0.78 v 0 q 1.55,0.45 2.75,1.2 1.2,0.75 1.93,1.85 0.72,1.1 0.72,2.75 v 0 q 0,1.85 -0.87,3.42 -0.88,1.58 -2.65,2.5 Q 12.6,0.4 9.85,0.4 Z M 29.05,0 H 24.4 v -38.7 h 4.55 v 22.8 l -0.1,-0.85 q 1.05,-2.05 3.22,-3.4 2.18,-1.35 5.13,-1.35 v 0 q 2.95,0 4.82,1.72 1.88,1.73 1.93,4.48 v 0 V 0 h -4.7 v -13.65 q -0.05,-1.7 -0.98,-2.78 -0.92,-1.07 -2.87,-1.07 v 0 q -1.8,0 -3.25,1.02 -1.45,1.03 -2.28,2.78 -0.82,1.75 -0.82,4 v 0 z m 21.2,-10.55 v 0 q 0,-3.1 1.47,-5.6 1.48,-2.5 4.08,-3.95 2.6,-1.45 5.9,-1.45 v 0 q 3.39,0 5.95,1.45 2.55,1.45 3.94,3.95 1.41,2.5 1.41,5.6 v 0 q 0,3.1 -1.41,5.62 -1.39,2.53 -3.97,3.98 -2.57,1.45 -5.97,1.45 v 0 q -3.3,0 -5.88,-1.38 -2.57,-1.37 -4.05,-3.85 -1.47,-2.47 -1.47,-5.82 z m 4.65,0.05 v 0 q 0,2 0.9,3.62 0.9,1.63 2.42,2.58 1.53,0.95 3.38,0.95 v 0 q 1.95,0 3.47,-0.95 1.52,-0.95 2.38,-2.58 0.85,-1.62 0.85,-3.62 v 0 q 0,-2 -0.85,-3.63 -0.86,-1.62 -2.38,-2.6 -1.52,-0.97 -3.47,-0.97 v 0 q -1.9,0 -3.43,1 -1.52,1 -2.4,2.62 -0.87,1.63 -0.87,3.58 z m 36.59,11 v 0 q -2.35,0 -4.52,-1.1 -2.18,-1.1 -3.38,-2.95 v 0 L 83.89,-5 V 9.95 h -4.6 V -21 h 4 l 0.65,5.3 -0.5,-1.45 q 1.5,-1.9 3.8,-3.15 2.3,-1.25 5.15,-1.25 v 0 q 2.9,0 5.23,1.4 2.32,1.4 3.67,3.9 1.35,2.5 1.35,5.85 v 0 q 0,3.35 -1.45,5.8 -1.45,2.45 -3.97,3.77 -2.53,1.33 -5.73,1.33 z m -0.9,-3.7 v 0 q 2,0 3.68,-0.93 1.67,-0.92 2.67,-2.55 1,-1.62 1,-3.67 v 0 q 0,-2.1 -0.95,-3.73 -0.95,-1.62 -2.52,-2.57 -1.58,-0.95 -3.53,-0.95 v 0 q -1.8,0 -3.25,0.7 -1.45,0.7 -2.4,1.92 -0.95,1.23 -1.35,2.83 v 0 3.45 q 0.25,1.6 1.2,2.85 0.95,1.25 2.38,1.95 1.42,0.7 3.07,0.7 z m 27.95,3.7 v 0 q -3.55,0 -6.1,-1.43 -2.55,-1.42 -3.92,-3.9 -1.38,-2.47 -1.38,-5.67 v 0 q 0,-3.05 1.55,-5.55 1.55,-2.5 4.15,-4 2.6,-1.5 5.8,-1.5 v 0 q 4.1,0 6.8,2.4 2.7,2.4 3.65,6.6 v 0 l -17.05,6 -1.1,-2.75 14,-5.1 -1,0.65 q -0.6,-1.65 -2,-2.88 -1.4,-1.22 -3.65,-1.22 v 0 q -1.9,0 -3.4,0.92 -1.5,0.93 -2.35,2.53 -0.85,1.6 -0.85,3.65 v 0 q 0,2.15 0.9,3.77 0.9,1.63 2.48,2.56 1.57,0.92 3.57,0.92 v 0 q 1.35,0 2.63,-0.5 1.27,-0.5 2.37,-1.3 v 0 l 2.15,3.45 q -1.55,1.05 -3.47,1.7 -1.93,0.65 -3.78,0.65 z m 26,0 v 0 q -3.55,0 -6.1,-1.43 -2.55,-1.42 -3.93,-3.9 -1.37,-2.47 -1.37,-5.67 v 0 q 0,-3.05 1.55,-5.55 1.55,-2.5 4.15,-4 2.6,-1.5 5.8,-1.5 v 0 q 4.1,0 6.8,2.4 2.7,2.4 3.65,6.6 v 0 l -17.05,6 -1.1,-2.75 14,-5.1 -1,0.65 q -0.6,-1.65 -2,-2.88 -1.4,-1.22 -3.65,-1.22 v 0 q -1.9,0 -3.4,0.92 -1.5,0.93 -2.35,2.53 -0.85,1.6 -0.85,3.65 v 0 q 0,2.15 0.9,3.77 0.9,1.63 2.47,2.56 1.58,0.92 3.58,0.92 v 0 q 1.35,0 2.62,-0.5 1.28,-0.5 2.38,-1.3 v 0 l 2.15,3.45 q -1.55,1.05 -3.48,1.7 -1.92,0.65 -3.77,0.65 z"
                                   opacity="1"
                                   fill="#374151"
                                   class="wordmark-text-0"
                                   data-fill-palette-color="primary"
                                   id="path416"
                                   style="fill:#524cf0;fill-opacity:1" />
                              </svg>
                            </g>
                          </svg>
                        </g>
                      </svg>
                    </g>
                  </svg>
                </g>
                <g
                   transform="translate(57.31665)"
                   id="g446">
                  <svg
                     viewBox="0 0 77.3667 84.400037"
                     height="84.40004"
                     width="77.366699"
                     version="1.1"
                     id="svg444">
                    <g
                       id="g442">
                      <svg
                         version="1.1"
                         x="0"
                         y="0"
                         viewBox="4 0 88 96"
                         enable-background="new 0 0 96 96"
                         xml:space="preserve"
                         height="84.40004"
                         width="77.366699"
                         class="icon-icon-0"
                         data-fill-palette-color="accent"
                         id="svg440"><path
                           d="M 85.884,1.328 C 85.6,0.532 84.852,0 84,0 H 11.876 C 11.028,0 10.272,0.536 9.988,1.336 L 4,18.316 V 32 c 0,3.252 1.832,6 4,6 3.308,0 6,-2.692 6,-6 0,-1.1 0.896,-2 2,-2 1.104,0 2,0.9 2,2 0,3.308 2.692,6 6,6 3.308,0 6,-2.692 6,-6 0,-1.1 0.896,-2 2,-2 1.104,0 2,0.9 2,2 0,3.308 2.692,6 6,6 3.308,0 6,-2.692 6,-6 0,-1.1 0.896,-2 2,-2 1.104,0 2,0.9 2,2 0,3.308 2.691,6 6,6 3.309,0 6,-2.692 6,-6 0,-1.1 0.9,-2 2,-2 1.1,0 2,0.9 2,2 0,3.308 2.691,6 6,6 3.309,0 6,-2.692 6,-6 0,-1.1 0.9,-2 2,-2 1.1,0 2,0.9 2,2 0,2.764 1.309,6 5,6 3.691,0 5,-3.236 5,-6 V 18.456 Z"
                           fill="#374151"
                           data-fill-palette-color="accent"
                           id="path434"
                           style="fill:#524cf0;fill-opacity:1" /><path
                           d="m 72,41.756 c -3.264,0 -6.172,-1.452 -8,-3.888 -1.828,2.428 -4.736,4.072 -8,4.072 -3.264,0 -6.172,-1.544 -8,-3.976 -1.828,2.432 -4.732,4.02 -8,4.02 -3.268,0 -6.172,-1.572 -8,-4 -1.828,2.428 -4.732,4.008 -8,4.008 -1.428,0 -2.768,-0.344 -4,-0.884 V 76 H 76 V 40.78 c -1.236,0.596 -2.572,0.976 -4,0.976 z"
                           fill="#374151"
                           data-fill-palette-color="accent"
                           id="path436"
                           style="fill:#524cf0;fill-opacity:1" /><path
                           d="m 80,78 c 0,1.1 -0.9,2 -2,2 H 18 c -1.104,0 -2,-0.9 -2,-2 V 37.992 C 14.172,40.42 11.268,42 8,42 v 52 c 0,1.1 0.896,2 2,2 h 76 c 1.1,0 2,-0.9 2,-2 0,0 0,-49.064 0,-52.948 -2.977,0 -6.336,-0.888 -8,-3.036 z"
                           fill="#374151"
                           data-fill-palette-color="accent"
                           id="path438"
                           style="fill:#524cf0;fill-opacity:1" /></svg>
                    </g>
                  </svg>
                </g>
                <g
                   id="g448" />
              </svg>
            </g>
          </svg>
        </g>
      </svg>
    </g>
  </svg>
</svg>
